<svg width="30" height="30" viewBox="0 0 30 30" fill="none" xmlns="http://www.w3.org/2000/svg">
<path d="M13.5 16.5V21C13.5 21.425 13.644 21.7815 13.932 22.0695C14.22 22.3575 14.576 22.501 15 22.5C15.425 22.5 15.7815 22.356 16.0695 22.068C16.3575 21.78 16.501 21.424 16.5 21V16.5H21C21.425 16.5 21.7815 16.356 22.0695 16.068C22.3575 15.78 22.501 15.424 22.5 15C22.5 14.575 22.356 14.2185 22.068 13.9305C21.78 13.6425 21.424 13.499 21 13.5H16.5V9C16.5 8.575 16.356 8.2185 16.068 7.9305C15.78 7.6425 15.424 7.499 15 7.5C14.575 7.5 14.2185 7.644 13.9305 7.932C13.6425 8.22 13.499 8.576 13.5 9V13.5H9C8.575 13.5 8.2185 13.644 7.9305 13.932C7.6425 14.22 7.499 14.576 7.5 15C7.5 15.425 7.644 15.7815 7.932 16.0695C8.22 16.3575 8.576 16.501 9 16.5H13.5ZM15 30C12.925 30 10.975 29.606 9.15 28.818C7.325 28.03 5.7375 26.9615 4.3875 25.6125C3.0375 24.2625 1.969 22.675 1.182 20.85C0.395 19.025 0.001 17.075 0 15C0 12.925 0.394 10.975 1.182 9.15C1.97 7.325 3.0385 5.7375 4.3875 4.3875C5.7375 3.0375 7.325 1.969 9.15 1.182C10.975 0.395 12.925 0.001 15 0C17.075 0 19.025 0.394 20.85 1.182C22.675 1.97 24.2625 3.0385 25.6125 4.3875C26.9625 5.7375 28.0315 7.325 28.8195 9.15C29.6075 10.975 30.001 12.925 30 15C30 17.075 29.606 19.025 28.818 20.85C28.03 22.675 26.9615 24.2625 25.6125 25.6125C24.2625 26.9625 22.675 28.0315 20.85 28.8195C19.025 29.6075 17.075 30.001 15 30ZM15 27C18.35 27 21.1875 25.8375 23.5125 23.5125C25.8375 21.1875 27 18.35 27 15C27 11.65 25.8375 8.8125 23.5125 6.4875C21.1875 4.1625 18.35 3 15 3C11.65 3 8.8125 4.1625 6.4875 6.4875C4.1625 8.8125 3 11.65 3 15C3 18.35 4.1625 21.1875 6.4875 23.5125C8.8125 25.8375 11.65 27 15 27Z" fill="#424651"/>
</svg>
