<svg width="27" height="10" viewBox="0 0 27 10" fill="none" xmlns="http://www.w3.org/2000/svg">
<path d="M24.5502 3.16667C25.0139 3.16667 25.4029 3.01467 25.7172 2.71067C26.0314 2.40667 26.188 2.03089 26.1869 1.58334C26.1869 1.13473 26.0298 0.758422 25.7155 0.454422C25.4013 0.150422 25.0128 -0.00105008 24.5502 5.47868e-06H1.63668C1.17295 5.47868e-06 0.783972 0.152006 0.46973 0.456006C0.155487 0.760006 -0.0010891 1.13578 1.90735e-06 1.58334C1.90735e-06 2.03195 0.157124 2.40826 0.471365 2.71226C0.785608 3.01626 1.17405 3.16773 1.63668 3.16667H24.5502ZM24.5502 9.50001C25.0139 9.50001 25.4029 9.34801 25.7172 9.04401C26.0314 8.74001 26.188 8.36423 26.1869 7.91667C26.1869 7.46806 26.0298 7.09175 25.7155 6.78776C25.4013 6.48376 25.0128 6.33228 24.5502 6.33334H1.63668C1.17295 6.33334 0.783972 6.48534 0.46973 6.78934C0.155487 7.09334 -0.0010891 7.46912 1.90735e-06 7.91667C1.90735e-06 8.36528 0.157124 8.74159 0.471365 9.04559C0.785608 9.34959 1.17405 9.50106 1.63668 9.50001H24.5502Z" fill="#E0E2E6"/>
</svg>
