<svg width="24" height="30" viewBox="0 0 24 30" fill="none" xmlns="http://www.w3.org/2000/svg">
<path d="M1.66667 26.6667C1.66667 28.5 3.16667 30 5 30H18.3333C20.1667 30 21.6667 28.5 21.6667 26.6667V6.66667H1.66667V26.6667ZM6.95 15.9833C6.63837 15.6717 6.4633 15.249 6.4633 14.8083C6.4633 14.3676 6.63837 13.945 6.95 13.6333C7.26163 13.3217 7.68429 13.1466 8.125 13.1466C8.56571 13.1466 8.98837 13.3217 9.3 13.6333L11.6667 15.9833L14.0167 13.6333C14.3283 13.3217 14.751 13.1466 15.1917 13.1466C15.6324 13.1466 16.055 13.3217 16.3667 13.6333C16.6783 13.945 16.8534 14.3676 16.8534 14.8083C16.8534 15.249 16.6783 15.6717 16.3667 15.9833L14.0167 18.3333L16.3667 20.6833C16.521 20.8376 16.6434 21.0208 16.7269 21.2224C16.8104 21.424 16.8534 21.6401 16.8534 21.8583C16.8534 22.0765 16.8104 22.2926 16.7269 22.4942C16.6434 22.6958 16.521 22.879 16.3667 23.0333C16.2124 23.1876 16.0292 23.31 15.8276 23.3935C15.626 23.4771 15.4099 23.52 15.1917 23.52C14.9734 23.52 14.7574 23.4771 14.5558 23.3935C14.3542 23.31 14.171 23.1876 14.0167 23.0333L11.6667 20.6833L9.31667 23.0333C9.16236 23.1876 8.97918 23.31 8.77757 23.3935C8.57597 23.4771 8.35989 23.52 8.14167 23.52C7.92345 23.52 7.70737 23.4771 7.50576 23.3935C7.30416 23.31 7.12097 23.1876 6.96667 23.0333C6.81236 22.879 6.68996 22.6958 6.60646 22.4942C6.52295 22.2926 6.47997 22.0765 6.47997 21.8583C6.47997 21.6401 6.52295 21.424 6.60646 21.2224C6.68996 21.0208 6.81236 20.8376 6.96667 20.6833L9.31667 18.3333L6.95 15.9833ZM21.6667 1.66667H17.5L16.3167 0.483333C16.0167 0.183333 15.5833 0 15.15 0H8.18333C7.75 0 7.31667 0.183333 7.01667 0.483333L5.83333 1.66667H1.66667C0.75 1.66667 0 2.41667 0 3.33333C0 4.25 0.75 5 1.66667 5H21.6667C22.5833 5 23.3333 4.25 23.3333 3.33333C23.3333 2.41667 22.5833 1.66667 21.6667 1.66667Z" fill="#424651"/>
</svg>
