<svg width="27" height="10" viewBox="0 0 27 10" fill="none" xmlns="http://www.w3.org/2000/svg">
<path d="M24.7371 3.41667C25.2008 3.41667 25.5898 3.26467 25.904 2.96067C26.2183 2.65667 26.3748 2.28089 26.3737 1.83334C26.3737 1.38473 26.2166 1.00842 25.9024 0.704422C25.5881 0.400422 25.1997 0.24895 24.7371 0.250005H1.82354C1.35981 0.250005 0.970831 0.402006 0.65659 0.706006C0.342346 1.01001 0.18577 1.38578 0.186861 1.83334C0.186861 2.28195 0.343983 2.65826 0.658224 2.96226C0.972467 3.26626 1.36091 3.41773 1.82354 3.41667H24.7371ZM24.7371 9.75001C25.2008 9.75001 25.5898 9.59801 25.904 9.29401C26.2183 8.99001 26.3748 8.61423 26.3737 8.16667C26.3737 7.71806 26.2166 7.34175 25.9024 7.03776C25.5881 6.73376 25.1997 6.58228 24.7371 6.58334H1.82354C1.35981 6.58334 0.970831 6.73534 0.65659 7.03934C0.342346 7.34334 0.18577 7.71912 0.186861 8.16667C0.186861 8.61528 0.343983 8.99159 0.658224 9.29559C0.972467 9.59959 1.36091 9.75106 1.82354 9.75001H24.7371Z" fill="#424651"/>
</svg>
