<svg width="8" height="28" viewBox="0 0 8 28" fill="none" xmlns="http://www.w3.org/2000/svg">
<path d="M0.666687 14C0.666687 14.8841 1.01788 15.7319 1.643 16.357C2.26812 16.9821 3.11597 17.3333 4.00002 17.3333C4.88408 17.3333 5.73192 16.9821 6.35704 16.357C6.98216 15.7319 7.33335 14.8841 7.33335 14C7.33335 13.1159 6.98216 12.2681 6.35704 11.643C5.73192 11.0179 4.88408 10.6667 4.00002 10.6667C3.11597 10.6667 2.26812 11.0179 1.643 11.643C1.01788 12.2681 0.666687 13.1159 0.666687 14ZM0.666687 4C0.666687 4.88406 1.01788 5.7319 1.643 6.35702C2.26812 6.98214 3.11597 7.33333 4.00002 7.33333C4.88408 7.33333 5.73192 6.98214 6.35704 6.35702C6.98216 5.7319 7.33335 4.88406 7.33335 4C7.33335 3.11595 6.98216 2.2681 6.35704 1.64298C5.73192 1.01786 4.88408 0.666667 4.00002 0.666667C3.11597 0.666667 2.26812 1.01786 1.643 1.64298C1.01788 2.2681 0.666687 3.11595 0.666687 4ZM0.666687 24C0.666687 24.8841 1.01788 25.7319 1.643 26.357C2.26812 26.9821 3.11597 27.3333 4.00002 27.3333C4.88408 27.3333 5.73192 26.9821 6.35704 26.357C6.98216 25.7319 7.33335 24.8841 7.33335 24C7.33335 23.1159 6.98216 22.2681 6.35704 21.643C5.73192 21.0179 4.88408 20.6667 4.00002 20.6667C3.11597 20.6667 2.26812 21.0179 1.643 21.643C1.01788 22.2681 0.666687 23.1159 0.666687 24Z" fill="#424651"/>
</svg>
