<svg width="27" height="28" viewBox="0 0 27 28" fill="none" xmlns="http://www.w3.org/2000/svg">
<path d="M24.9 27.1667L15.45 17.7167C14.7 18.3167 13.8375 18.7917 12.8625 19.1417C11.8875 19.4917 10.85 19.6667 9.75 19.6667C7.025 19.6667 4.719 18.7227 2.832 16.8347C0.945 14.9467 0.001 12.6407 0 9.91669C0 7.19169 0.944 4.88569 2.832 2.99869C4.72 1.11169 7.026 0.167687 9.75 0.166687C12.475 0.166687 14.781 1.11069 16.668 2.99869C18.555 4.88669 19.499 7.19269 19.5 9.91669C19.5 11.0167 19.325 12.0542 18.975 13.0292C18.625 14.0042 18.15 14.8667 17.55 15.6167L27 25.0667L24.9 27.1667ZM9.75 16.6667C11.625 16.6667 13.219 16.0102 14.532 14.6972C15.845 13.3842 16.501 11.7907 16.5 9.91669C16.5 8.04169 15.8435 6.44769 14.5305 5.13469C13.2175 3.82169 11.624 3.16569 9.75 3.16669C7.875 3.16669 6.281 3.82319 4.968 5.13619C3.655 6.44919 2.999 8.04269 3 9.91669C3 11.7917 3.6565 13.3857 4.9695 14.6987C6.2825 16.0117 7.876 16.6677 9.75 16.6667Z" fill="#424651"/>
</svg>
